<svg width="147" height="46" viewBox="0 0 147 46" fill="none" xmlns="http://www.w3.org/2000/svg">
<path d="M5.24717 41.2831C4.75052 40.7001 4.35105 39.9983 4.04874 39.1777C3.76803 38.3572 3.62767 37.1264 3.62767 35.4853V25.5416H0.971698V21.8491H3.69245V16.9906H8.84245V21.8491H11.9843V25.5416H8.84245V34.9347C8.84245 36.6405 9.03679 37.9469 9.42547 38.8538C9.81415 39.7608 10.2784 40.5057 10.8182 41.0887V41.2831H5.24717ZM14.8219 41.2831V16.0189H25.543C27.7023 16.0189 29.4514 16.332 30.7902 16.9582C32.1506 17.5628 33.1438 18.405 33.7701 19.4847C34.4179 20.5427 34.7418 21.7735 34.7418 23.1771C34.7418 24.775 34.3207 26.157 33.4785 27.323C32.6364 28.4891 31.3948 29.3204 29.7537 29.817L35.4219 41.0887V41.2831H29.6565L24.5065 30.5944H20.1987V41.2831H14.8219ZM20.1987 26.6428H24.7657C26.1692 26.6428 27.2597 26.4053 28.037 25.9302C28.836 25.4552 29.2355 24.6023 29.2355 23.3714C29.2355 22.119 28.836 21.2661 28.037 20.8126C27.2381 20.3376 26.1476 20.1001 24.7657 20.1001H20.1987V26.6428ZM44.4289 41.6718C42.615 41.6718 41.1251 41.2399 39.9591 40.3762C38.793 39.4908 37.9293 38.2816 37.3679 36.7485C36.8064 35.2154 36.5257 33.4771 36.5257 31.5337C36.5257 29.5255 36.8064 27.7657 37.3679 26.2541C37.9509 24.7426 38.8254 23.5658 39.9915 22.7236C41.1575 21.8815 42.6258 21.4604 44.3965 21.4604C45.7569 21.4604 46.8689 21.7304 47.7326 22.2702C48.618 22.7884 49.2874 23.4902 49.7408 24.3755H50.5182V21.8491H55.3767V41.2831H50.5182V38.7567H49.7408C49.2874 39.5772 48.6288 40.2682 47.765 40.8296C46.9013 41.391 45.7893 41.6718 44.4289 41.6718ZM45.7893 37.9793C47.1064 37.9793 48.1537 37.4071 48.9311 36.2626C49.73 35.0966 50.1295 33.5311 50.1295 31.5661C50.1295 29.5795 49.73 28.014 48.9311 26.8696C48.1537 25.7251 47.1064 25.1529 45.7893 25.1529C44.6016 25.1529 43.6623 25.6927 42.9713 26.7724C42.3019 27.8305 41.9672 29.4284 41.9672 31.5661C41.9672 33.7038 42.3019 35.3125 42.9713 36.3922C43.6623 37.4503 44.6016 37.9793 45.7893 37.9793ZM67.5305 41.7689C64.529 41.7689 62.2401 40.8512 60.6638 39.0158C59.0875 37.1804 58.2994 34.6971 58.2994 31.5661C58.2994 28.2623 59.1307 25.7359 60.7934 23.9869C62.4777 22.2378 64.745 21.3633 67.5953 21.3633C70.1649 21.3633 72.1838 22.0435 73.6522 23.4038C75.1205 24.7642 75.9951 26.6212 76.2758 28.9749H71.0934C70.9422 27.7009 70.5644 26.7292 69.9597 26.0598C69.3551 25.3904 68.5778 25.0557 67.6277 25.0557C66.3753 25.0557 65.4143 25.6171 64.745 26.74C64.0756 27.8628 63.7409 29.4715 63.7409 31.5661C63.7409 33.6606 64.0648 35.2693 64.7126 36.3922C65.382 37.5151 66.3429 38.0765 67.5953 38.0765C68.567 38.0765 69.3551 37.7418 69.9597 37.0724C70.5644 36.3814 70.9422 35.4097 71.0934 34.1573H76.2758C75.9735 36.4678 75.0773 38.314 73.5874 39.696C72.1191 41.0779 70.1001 41.7689 67.5305 41.7689ZM79.0912 41.2831V15.3711H84.3383V29.2988H85.8931L91.3346 21.8491H96.9056V22.0435L90.2657 30.9183L97.683 41.0887V41.2831H91.5613L85.8931 33.1856H84.3383V41.2831H79.0912ZM107.021 41.7689C103.955 41.7689 101.612 40.8512 99.9923 39.0158C98.3944 37.1804 97.5954 34.6863 97.5954 31.5337C97.5954 29.4176 97.9517 27.6037 98.6643 26.0922C99.3985 24.5807 100.457 23.4146 101.839 22.5941C103.242 21.7735 104.948 21.3633 106.956 21.3633C109.85 21.3633 112.063 22.2378 113.596 23.9869C115.151 25.7359 115.928 28.3055 115.928 31.6957V32.7969H102.713C102.821 34.438 103.242 35.7336 103.976 36.6837C104.732 37.6122 105.747 38.0765 107.021 38.0765C108.036 38.0765 108.846 37.7742 109.45 37.1696C110.076 36.5649 110.487 35.8632 110.681 35.0642H115.669C115.475 36.2518 115.043 37.3531 114.373 38.368C113.704 39.3829 112.765 40.2034 111.556 40.8296C110.346 41.4558 108.835 41.7689 107.021 41.7689ZM102.713 29.4931H110.811C110.724 28.0248 110.357 26.8912 109.709 26.0922C109.061 25.2717 108.133 24.8614 106.924 24.8614C105.736 24.8614 104.775 25.2501 104.041 26.0274C103.328 26.7832 102.886 27.9384 102.713 29.4931ZM121.579 41.2831C121.083 40.7001 120.683 39.9983 120.381 39.1777C120.1 38.3572 119.96 37.1264 119.96 35.4853V25.5416H117.304V21.8491H120.024V16.9906H125.174V21.8491H128.316V25.5416H125.174V34.9347C125.174 36.6405 125.369 37.9469 125.757 38.8538C126.146 39.7608 126.61 40.5057 127.15 41.0887V41.2831H121.579Z" fill="white"/>
<path d="M131.615 26.5249C135.292 24.1299 136.331 19.2077 133.936 15.5308C131.542 11.8539 126.619 10.8147 122.942 13.2097" stroke="white" stroke-width="2.26415" stroke-linecap="round"/>
<path d="M134.436 32.4528C141.196 28.0496 143.106 19.0001 138.703 12.2401C134.3 5.48007 125.25 3.56951 118.49 7.97272" stroke="white" stroke-width="2.26415" stroke-linecap="round"/>
</svg>
